<svg width="15" height="15" viewBox="0 0 15 15" fill="none" xmlns="http://www.w3.org/2000/svg">
<path d="M0.287982 0.440452C0.89366 -0.154672 0.590528 -0.0233347 5.55909 0.127938C7.06713 0.173672 8.47784 0.433416 9.3673 0.718372C9.98529 0.916552 11.4271 1.47357 12.6097 2.85965C13.2277 3.58552 13.7407 4.49492 14.1858 6.19411C15.0248 9.39957 14.2368 14.306 14.2368 14.306C14.2368 14.306 6.73585 15.3567 3.91736 13.5584C3.17917 13.0893 1.87518 12.2333 1.03555 10.618C0.632744 9.84284 0.51196 9.22836 0.235212 5.74732C-0.13183 1.12294 -0.0344995 0.757657 0.287982 0.440452Z" fill="#F88600"/>
<path d="M2.53919 7.26409C2.53919 7.30924 2.53919 7.35556 2.53919 7.40129C2.57086 8.57102 2.98481 9.64517 3.74469 10.4232C4.08791 10.7813 4.49291 11.0744 4.94021 11.2887C5.6227 11.5994 6.2917 11.7671 7.04162 11.7671H9.23039C9.36466 11.7671 9.28902 9.58889 9.23039 9.58889H7.02168C5.7945 9.58889 4.75435 8.62848 4.71741 7.4007C4.67988 6.12485 5.49664 5.18086 6.96716 5.0976L8.54145 5.07415V2.89652L6.9695 2.84375C4.60308 2.90238 2.99067 4.3471 2.61425 6.40981C2.59666 6.50479 2.58551 6.60623 2.57144 6.70297C2.5485 6.88911 2.53772 7.07655 2.53919 7.26409Z" fill="white"/>
<path d="M9.61396 9.58838H8.96255C8.50169 10.1337 7.36714 11.1087 4.95264 11.2582C5.59827 11.5925 6.31471 11.7668 7.04173 11.7666H9.61396C9.89843 11.76 10.169 11.6423 10.3679 11.4388C10.5668 11.2353 10.6781 10.962 10.6781 10.6775C10.6781 10.3929 10.5668 10.1197 10.3679 9.91615C10.169 9.71262 9.89843 9.59498 9.61396 9.58838Z" fill="white"/>
<path d="M3.146 7.84063C3.146 5.70111 4.83463 3.9603 6.94189 3.89463C7.00756 3.89111 7.07382 3.88818 7.14125 3.88818L8.60238 3.88466C9.00114 3.88379 9.39447 3.79216 9.75256 3.61672C10.1107 3.44128 10.4241 3.18663 10.6692 2.87207C10.6635 3.45992 10.4265 4.02187 10.0095 4.43625C9.59246 4.85062 9.02902 5.08407 8.44114 5.08605L7.19871 5.08957C7.14203 5.08957 7.08574 5.09133 7.02984 5.09485C6.16192 5.12531 5.33994 5.49243 4.738 6.11844C4.13606 6.74446 3.80145 7.5802 3.80503 8.44865C3.80503 9.9819 4.82348 11.297 6.2166 11.6987C6.12045 11.6828 6.02253 11.6582 5.92872 11.64C4.31572 11.1487 3.146 9.62424 3.146 7.84063Z" fill="white"/>
<path d="M2.50537 7.28754C2.50537 4.686 4.39746 2.84375 7.07874 2.84375H10.6665V2.8502C10.6665 2.85724 10.6665 2.86486 10.6665 2.87248C10.4214 3.18704 10.108 3.44169 9.74986 3.61713C9.39177 3.79257 8.99844 3.8842 8.59968 3.88507L7.13855 3.88859C7.07112 3.88859 7.00486 3.88859 6.9392 3.89504C4.83369 3.96071 3.14271 5.70152 3.14271 7.84104C3.14135 8.68618 3.41149 9.50941 3.91332 10.1894C4.41516 10.8695 5.12215 11.3703 5.93012 11.6182C3.8768 11.1661 2.50537 9.4939 2.50537 7.28754Z" fill="white"/>
</svg>
