<svg width="28" height="28" viewBox="0 0 28 28" fill="none" xmlns="http://www.w3.org/2000/svg">
<g clip-path="url(#clip0_2_1615)">
<path fill-rule="evenodd" clip-rule="evenodd" d="M10.0105 10.0781H14.8458V12.4484C15.5424 11.0851 17.3286 9.86028 20.0118 9.86028C25.1557 9.86028 26.3769 12.5739 26.3769 17.5527V26.7737H21.1692V18.6866C21.1692 15.8513 20.4727 14.2523 18.6995 14.2523C16.2402 14.2523 15.2182 15.9756 15.2182 18.6853V26.7737H10.0105V10.0781ZM1.08071 26.5559H6.28837V9.86028H1.08071V26.5559ZM7.03437 4.41637C7.03456 4.84593 6.94799 5.27124 6.77969 5.66759C6.6114 6.06394 6.36473 6.42342 6.05402 6.72513C5.42442 7.34092 4.5722 7.6856 3.68454 7.68348C2.79845 7.6829 1.94819 7.33909 1.31766 6.72641C1.00808 6.42367 0.762247 6.06379 0.594246 5.66739C0.426244 5.27099 0.339377 4.84586 0.338623 4.41637C0.338623 3.54898 0.69014 2.71874 1.31896 2.10632C1.94894 1.49282 2.79955 1.14886 3.68584 1.14925C4.57375 1.14925 5.4252 1.4939 6.05402 2.10632C6.68155 2.71874 7.03437 3.54898 7.03437 4.41637Z" fill="#353535"/>
</g>
<defs>
<clipPath id="clip0_2_1615">
<rect width="27.4185" height="26.4552" fill="white" transform="translate(0.240723 0.777344)"/>
</clipPath>
</defs>
</svg>
