<svg width="167" height="48" viewBox="0 0 167 48" fill="none" xmlns="http://www.w3.org/2000/svg">
<path d="M143.207 28.038C143.207 29.5792 143.207 31.1207 143.207 32.6627C143.214 32.9102 143.206 33.158 143.181 33.4044C143.103 34.013 142.781 34.3968 142.184 34.4381C141.387 34.4883 140.589 34.4913 139.792 34.4472C139.283 34.4213 138.939 34.0918 138.77 33.6073C138.716 33.4535 138.707 33.2842 138.667 33.124C138.661 33.0894 138.647 33.0569 138.625 33.0295C138.603 33.0022 138.574 32.981 138.542 32.9679C138.509 32.9549 138.474 32.9506 138.439 32.9553C138.404 32.96 138.371 32.9736 138.344 32.9948C138.222 33.0568 138.106 33.1305 137.987 33.2015C136.565 34.0518 135.034 34.4937 133.391 34.6733C131.41 34.882 129.408 34.5813 127.576 33.7998C125.41 32.9291 123.611 31.3393 122.48 29.2979C121.511 27.6183 121.011 25.7099 121.031 23.7713C121.071 20.957 122.065 18.5083 124.031 16.4732C125.625 14.8321 127.496 13.6924 129.752 13.2092C131.102 12.9268 132.495 12.9115 133.851 13.1639C134.993 13.3521 136.106 13.6906 137.16 14.1705C140.106 15.5596 141.954 17.8739 142.845 20.9815C143.21 22.2634 143.302 23.5736 143.249 24.9033C143.207 25.9473 143.241 26.9953 143.241 28.0406L143.207 28.038ZM132.34 17.5909C131.65 17.6103 131.129 17.6064 130.614 17.7369C129.238 18.0758 128.003 18.8372 127.082 19.9142C126.112 21.0089 125.561 22.4116 125.527 23.8738C125.492 25.336 125.976 26.7631 126.894 27.9024C127.942 29.2191 129.279 30.099 130.986 30.3148C132.163 30.4782 133.363 30.3595 134.485 29.9685C136.764 29.1558 138.607 27.0728 138.685 24.2766C138.798 20.2708 135.383 17.4772 132.34 17.5909V17.5909Z" fill="#F08619"/>
<path d="M97.3574 34.4746C97.0822 34.4746 96.8069 34.4824 96.5317 34.4746C95.6556 34.4436 95.3261 34.1787 95.0729 33.3117C95.0574 33.2587 95.0522 33.2031 95.0354 33.1514C95.0282 33.1178 95.0129 33.0864 94.9908 33.0601C94.9686 33.0338 94.9403 33.0133 94.9084 33.0006C94.8764 32.9878 94.8418 32.9831 94.8077 32.9869C94.7735 32.9906 94.7407 33.0028 94.7124 33.0222C94.3971 33.1902 94.0921 33.3789 93.7742 33.5391C92.2224 34.291 90.5257 34.6969 88.8016 34.7288C87.0775 34.7607 85.367 34.4178 83.7884 33.7239C80.1587 32.0751 78.1391 29.2103 77.5137 25.308C77.2165 23.4615 77.4994 21.6899 78.1442 19.961C78.7425 18.3536 79.7452 17.0201 81.0025 15.8752C82.3418 14.6329 83.97 13.7446 85.7396 13.2909C87.1581 12.9283 88.6381 12.8758 90.0787 13.1371C91.8269 13.4485 93.499 13.977 94.9889 14.9862C96.7979 16.2163 98.05 17.8884 98.8524 19.9119C99.3874 21.2596 99.5941 22.6707 99.682 24.1063C99.6943 24.271 99.6943 24.4364 99.682 24.6012C99.4494 26.8806 99.6161 29.1677 99.5657 31.4497C99.5554 31.9174 99.5657 32.3852 99.5657 32.8529C99.5707 33.0458 99.5621 33.2389 99.5399 33.4305C99.452 34.0249 99.116 34.3751 98.5139 34.4423C98.1292 34.4656 97.7436 34.4682 97.3587 34.4501L97.3574 34.4746ZM88.5268 17.5951C87.4866 17.5951 87.2075 17.6429 86.2603 17.9672C83.4563 18.9312 81.3501 22.0453 82.0323 25.2395C82.6578 28.1701 85.1142 30.0373 87.2889 30.3113C88.4658 30.4726 89.6641 30.3603 90.7906 29.983C93.7432 28.9739 95.9722 25.7564 94.7098 21.9807C93.7807 19.2012 91.0891 17.5137 88.5268 17.5951Z" fill="#F08619"/>
<path d="M144.963 24.0155C144.905 21.4092 145.682 19.2099 147.15 17.2575C148.038 16.0569 149.174 15.061 150.481 14.3372C151.278 13.9004 152.091 13.4947 152.98 13.266C155.559 12.5699 158.304 12.8306 160.706 13.9999C161.86 14.5309 162.909 15.2669 163.801 16.1721C165.351 17.7692 166.385 19.6519 166.795 21.864C167.245 24.1267 166.95 26.4746 165.952 28.5549C164.401 31.8176 161.807 33.8695 158.261 34.6099C155.975 35.0867 153.706 34.9291 151.542 33.9742C148.38 32.5787 146.309 30.2192 145.327 26.8957C145.042 25.9635 144.919 24.9893 144.963 24.0155V24.0155ZM162.35 24.0155V23.7674C162.325 20.6145 160.048 17.9113 156.842 17.565C156.132 17.4851 155.414 17.5086 154.71 17.6348C152.525 18.0224 150.94 19.2241 150.017 21.2632C149.564 22.2633 149.429 23.3151 149.473 24.4057C149.535 25.6647 149.969 26.8771 150.72 27.8893C151.471 28.9014 152.506 29.6678 153.693 30.0912C155.11 30.5861 156.65 30.5979 158.074 30.1248C159.641 29.6235 160.811 28.6233 161.6 27.1878C162.127 26.2156 162.386 25.1207 162.35 24.0155Z" fill="#F08619"/>
<path d="M72.5039 13.2934C73.7715 13.2934 75.0392 13.2934 76.3068 13.2934C77.3172 13.2934 77.4077 13.4149 77.2242 14.4046C76.7862 16.7654 74.8324 18.3587 72.9911 18.6378C72.5573 18.7138 72.1185 18.757 71.6782 18.767C70.6587 18.767 69.6392 18.767 68.6197 18.7812C67.7066 18.791 66.8077 19.0089 65.9914 19.4182C65.4066 19.7024 64.8891 20.1082 64.4737 20.6085C64.0584 21.1088 63.7546 21.692 63.5828 22.3192C63.3012 23.247 63.2802 24.2345 63.5221 25.1735C64.0739 27.334 66.1413 29.1056 68.5396 29.1353C70.3861 29.1573 72.2326 29.1353 74.0778 29.1418C74.353 29.1418 74.6308 29.1327 74.9048 29.156C75.5722 29.1983 76.1987 29.492 76.6582 29.9778C76.9717 30.3005 77.1959 30.6992 77.3088 31.1348C77.4216 31.5703 77.4193 32.0277 77.302 32.462C77.1847 32.8964 76.9565 33.2928 76.6397 33.6123C76.323 33.9318 75.9286 34.1635 75.4953 34.2846C75.1241 34.3922 74.7395 34.4462 74.353 34.4448C72.5065 34.4448 70.66 34.4745 68.8148 34.4358C67.2392 34.4235 65.6816 34.0999 64.2315 33.4834C60.9313 32.044 58.9104 29.5579 58.2087 26.0328C57.7599 23.8576 57.9733 21.5977 58.8212 19.5449C59.7128 17.3624 61.2363 15.7459 63.2908 14.6347C64.5616 13.9643 65.9506 13.5474 67.3805 13.4071C68.2314 13.322 69.0864 13.284 69.9416 13.2934H72.5039Z" fill="#F08619"/>
<path d="M114.459 13.4426C115.477 13.4426 116.497 13.4426 117.516 13.4426C117.931 13.4252 118.344 13.4925 118.732 13.6403C119.74 14.0616 120.312 14.8201 120.389 15.9094C120.467 17.0413 119.965 17.8748 118.967 18.402C118.45 18.6785 117.875 18.7534 117.287 18.7534C115.497 18.7534 113.707 18.7702 111.917 18.7664C111.31 18.7558 110.703 18.8271 110.115 18.9783C108.669 19.3659 107.489 20.1244 106.838 21.529C105.52 24.3718 106.759 27.743 109.859 28.8194C110.456 29.0324 111.086 29.1408 111.721 29.1399C113.676 29.1308 115.631 29.1399 117.586 29.1399C118.112 29.1243 118.631 29.252 119.09 29.5094C120.116 30.1051 120.489 31.0212 120.382 32.1609C120.28 33.1688 119.5 34.0307 118.457 34.2956C118.138 34.3816 117.809 34.4289 117.479 34.4364C115.495 34.4494 113.512 34.4894 111.535 34.4287C109.705 34.3929 107.909 33.9248 106.295 33.0629C104.304 32.0071 102.747 30.287 101.893 28.2017C101.238 26.6757 100.941 25.0198 101.027 23.3613C101.138 21.2577 101.687 19.2884 102.991 17.5866C103.966 16.3103 105.247 15.2998 106.715 14.6482C107.976 14.0784 109.277 13.6416 110.661 13.4943C110.962 13.4625 111.264 13.4461 111.566 13.4452C112.53 13.4388 113.495 13.4426 114.459 13.4426Z" fill="#F08619"/>
<path d="M0.927607 1.41872C2.87853 -0.498209 1.90213 -0.0751623 17.9062 0.412097C22.7636 0.559408 27.3076 1.39606 30.1726 2.31392C32.1632 2.95227 36.8073 4.74644 40.6166 9.2111C42.6072 11.5492 44.2597 14.4784 45.6932 19.9516C48.3958 30.2766 45.8575 46.0804 45.8575 46.0804C45.8575 46.0804 21.6966 49.4648 12.6181 43.6724C10.2403 42.1616 6.04006 39.4042 3.33558 34.2011C2.03811 31.7044 1.64905 29.7251 0.757634 18.5125C-0.424632 3.61706 -0.111125 2.44046 0.927607 1.41872Z" fill="#F88600"/>
<path d="M8.17914 23.3978C8.17914 23.5433 8.17914 23.6925 8.17914 23.8398C8.28112 27.6075 9.61448 31.0675 12.0621 33.5736C13.1676 34.7268 14.4722 35.6712 15.913 36.3612C18.1113 37.3622 20.2662 37.9023 22.6817 37.9023H29.7319C30.1644 37.9023 29.9207 30.8862 29.7319 30.8862H22.6175C18.6647 30.8862 15.3143 27.7926 15.1953 23.8379C15.0744 19.7283 17.7053 16.6876 22.4419 16.4195L27.5128 16.3439V9.32964L22.4494 9.15967C14.827 9.34853 9.63336 14.002 8.42088 20.6462C8.36422 20.9521 8.32833 21.2788 8.28301 21.5905C8.2091 22.19 8.1744 22.7938 8.17914 23.3978Z" fill="white"/>
<path d="M30.9673 30.8853H28.869C27.3846 32.6417 23.7301 35.7824 15.9529 36.264C18.0325 37.3406 20.3402 37.9021 22.682 37.9014H30.9673C31.8836 37.8802 32.7552 37.5012 33.3957 36.8456C34.0363 36.1901 34.3949 35.3099 34.3949 34.3933C34.3949 33.4768 34.0363 32.5966 33.3957 31.941C32.7552 31.2855 31.8836 30.9065 30.9673 30.8853Z" fill="white"/>
<path d="M10.1335 25.2545C10.1335 18.363 15.5727 12.7557 22.3604 12.5442C22.5719 12.5329 22.7853 12.5234 23.0025 12.5234L27.7089 12.5121C28.9933 12.5093 30.2603 12.2142 31.4137 11.649C32.5671 11.0839 33.5768 10.2637 34.3662 9.25049C34.3478 11.144 33.5844 12.9541 32.2412 14.2888C30.898 15.6235 29.0831 16.3755 27.1895 16.3819L23.1876 16.3932C23.005 16.3932 22.8237 16.3989 22.6437 16.4102C19.848 16.5083 17.2004 17.6908 15.2615 19.7073C13.3226 21.7237 12.2448 24.4157 12.2563 27.213C12.2563 32.1517 15.5368 36.3878 20.0242 37.6815C19.7144 37.6305 19.399 37.5512 19.0969 37.4927C13.9013 35.91 10.1335 30.9996 10.1335 25.2545Z" fill="white"/>
<path d="M8.07007 23.4734C8.07007 15.0937 14.1646 9.15967 22.8012 9.15967H34.3575V9.18044C34.3575 9.20311 34.3575 9.22766 34.3575 9.25221C33.5681 10.2654 32.5585 11.0857 31.405 11.6508C30.2516 12.2159 28.9846 12.511 27.7002 12.5138L22.9938 12.5252C22.7766 12.5252 22.5632 12.5252 22.3517 12.5459C15.5697 12.7575 10.123 18.3647 10.123 25.2562C10.1186 27.9785 10.9887 30.6302 12.6052 32.8206C14.2216 35.0109 16.4989 36.6242 19.1014 37.4226C12.4875 35.9665 8.07007 30.5802 8.07007 23.4734Z" fill="white"/>
</svg>
