<svg width="157" height="32" viewBox="0 0 157 32" fill="none" xmlns="http://www.w3.org/2000/svg">
<path d="M122.537 21.7848C122.537 24.0005 122.537 26.2169 122.537 28.4339C122.547 28.7898 122.535 29.146 122.5 29.5003C122.387 30.3753 121.924 30.9271 121.066 30.9866C119.921 31.0587 118.772 31.063 117.627 30.9996C116.895 30.9624 116.401 30.4887 116.157 29.792C116.079 29.5709 116.066 29.3275 116.009 29.0971C116.001 29.0474 115.98 29.0006 115.948 28.9613C115.917 28.922 115.876 28.8915 115.829 28.8728C115.782 28.8541 115.732 28.8478 115.682 28.8545C115.632 28.8613 115.584 28.8809 115.544 28.9114C115.37 29.0005 115.202 29.1064 115.032 29.2086C112.988 30.4311 110.786 31.0664 108.423 31.3247C105.575 31.6247 102.697 31.1924 100.063 30.0688C96.9497 28.8169 94.3623 26.5312 92.7358 23.5961C91.3437 21.1813 90.6245 18.4374 90.6532 15.6502C90.7108 11.6039 92.1394 8.08331 94.967 5.15724C97.2577 2.7978 99.9479 1.1592 103.192 0.464379C105.133 0.0584268 107.135 0.0363373 109.085 0.399355C110.727 0.669924 112.327 1.15656 113.843 1.8466C118.078 3.84376 120.735 7.17112 122.017 11.6392C122.541 13.4821 122.673 15.366 122.597 17.2777C122.537 18.7788 122.585 20.2855 122.585 21.7885L122.537 21.7848ZM106.913 6.76426C105.921 6.79213 105.172 6.78655 104.431 6.97419C102.453 7.46138 100.677 8.55614 99.3534 10.1046C97.9587 11.6785 97.1664 13.6953 97.1167 15.7975C97.0671 17.8998 97.7633 19.9517 99.0821 21.5897C100.589 23.4828 102.512 24.748 104.966 25.0582C106.659 25.2931 108.383 25.1224 109.997 24.5603C113.274 23.3918 115.923 20.397 116.035 16.3766C116.198 10.6174 111.288 6.60077 106.913 6.76426V6.76426Z" fill="#F66E19"/>
<path d="M56.614 31.0417C56.2183 31.0417 55.8226 31.0528 55.4269 31.0417C54.1673 30.9971 53.6935 30.6162 53.3294 29.3696C53.3071 29.2935 53.2997 29.2136 53.2755 29.1393C53.2652 29.0909 53.2432 29.0458 53.2113 29.008C53.1795 28.9701 53.1388 28.9407 53.0929 28.9224C53.047 28.904 52.9972 28.8972 52.9481 28.9027C52.8989 28.9081 52.8519 28.9255 52.8111 28.9535C52.3578 29.195 51.9193 29.4662 51.4623 29.6966C49.2311 30.7776 46.7917 31.3613 44.3128 31.4071C41.834 31.453 39.3747 30.96 37.105 29.9623C31.8864 27.5917 28.9826 23.4729 28.0834 17.8623C27.6561 15.2075 28.063 12.6604 28.9901 10.1746C29.8502 7.86348 31.2919 5.94621 33.0996 4.30018C35.0251 2.51402 37.3662 1.23685 39.9103 0.584533C41.9498 0.0631756 44.0777 -0.0122318 46.1489 0.363452C48.6625 0.811188 51.0666 1.57104 53.2086 3.022C55.8096 4.79064 57.6098 7.19467 58.7635 10.104C59.5327 12.0417 59.8299 14.0705 59.9562 16.1345C59.9739 16.3714 59.9739 16.6092 59.9562 16.8461C59.6218 20.1233 59.8615 23.4116 59.789 26.6925C59.7742 27.3651 59.789 28.0376 59.789 28.7101C59.7962 28.9875 59.7838 29.265 59.7519 29.5406C59.6256 30.3952 59.1425 30.8986 58.2768 30.9952C57.7237 31.0287 57.1693 31.0324 56.6159 31.0064L56.614 31.0417ZM43.9177 6.77294C42.4221 6.77294 42.0208 6.84168 40.659 7.30799C36.6276 8.69393 33.5993 13.1713 34.5802 17.7638C35.4794 21.9774 39.0111 24.6619 42.1379 25.0558C43.8301 25.2877 45.5529 25.1262 47.1726 24.5839C51.4177 23.1329 54.6224 18.507 52.8073 13.0784C51.4716 9.08221 47.6017 6.6559 43.9177 6.77294Z" fill="#F66E19"/>
<path d="M125.062 16.0047C124.978 12.2575 126.095 9.09548 128.205 6.28831C129.483 4.56215 131.116 3.13034 132.995 2.08963C134.141 1.46169 135.31 0.878331 136.588 0.549496C140.296 -0.451356 144.242 -0.0765369 147.696 1.60474C149.355 2.36822 150.863 3.42634 152.145 4.72774C154.375 7.02401 155.861 9.73086 156.45 12.9114C157.098 16.1646 156.673 19.5403 155.238 22.5313C153.009 27.2223 149.279 30.1725 144.181 31.237C140.894 31.9226 137.632 31.6959 134.52 30.323C129.975 28.3165 126.996 24.9241 125.584 20.1458C125.174 18.8054 124.998 17.4048 125.062 16.0047V16.0047ZM150.059 16.0047V15.648C150.024 11.1149 146.75 7.22837 142.141 6.73047C141.12 6.61556 140.087 6.64935 139.075 6.8308C135.934 7.38814 133.654 9.11592 132.328 12.0476C131.676 13.4855 131.482 14.9978 131.546 16.5658C131.634 18.3759 132.258 20.1191 133.338 21.5743C134.418 23.0296 135.906 24.1314 137.613 24.7402C139.65 25.4516 141.864 25.4686 143.911 24.7885C146.165 24.0677 147.846 22.6297 148.981 20.5657C149.739 19.168 150.111 17.5937 150.059 16.0047Z" fill="#F66E19"/>
<path d="M20.8827 0.586968C22.7052 0.586968 24.5277 0.586968 26.3502 0.586968C27.8031 0.586968 27.9331 0.761603 27.6693 2.1847C27.0395 5.57894 24.2305 7.86963 21.5831 8.27092C20.9595 8.38018 20.3285 8.44228 19.6955 8.45671C18.2297 8.45671 16.7639 8.45671 15.2981 8.47714C13.9852 8.4912 12.6928 8.80444 11.5192 9.39305C10.6784 9.80162 9.93441 10.3851 9.33719 11.1044C8.73998 11.8236 8.30326 12.6622 8.05627 13.5639C7.65131 14.8979 7.6211 16.3177 7.96895 17.6678C8.76224 20.7741 11.7348 23.3211 15.1829 23.3639C17.8377 23.3955 20.4925 23.3639 23.1455 23.3732C23.5412 23.3732 23.9407 23.3602 24.3345 23.3936C25.2941 23.4544 26.1949 23.8766 26.8556 24.5752C27.3063 25.0392 27.6286 25.6124 27.7909 26.2386C27.9531 26.8648 27.9498 27.5224 27.7811 28.1469C27.6125 28.7714 27.2844 29.3413 26.829 29.8007C26.3736 30.2601 25.8065 30.5932 25.1835 30.7673C24.6499 30.922 24.0968 30.9996 23.5412 30.9977C20.8864 30.9977 18.2316 31.0404 15.5786 30.9847C13.3133 30.967 11.0738 30.5017 8.98889 29.6154C4.24401 27.5458 1.33838 23.9714 0.329581 18.9032C-0.315686 15.7757 -0.00895854 12.5266 1.21019 9.57511C2.49209 6.43725 4.68246 4.11312 7.6364 2.51539C9.46349 1.55154 11.4605 0.952113 13.5164 0.750456C14.7399 0.628052 15.9691 0.573472 17.1986 0.586968H20.8827Z" fill="#F66E19"/>
<path d="M81.2043 0.800764C82.6683 0.800764 84.1341 0.800764 85.6 0.800764C86.196 0.77565 86.7908 0.872371 87.3482 1.08501C88.7973 1.69066 89.6203 2.7812 89.7299 4.34735C89.8432 5.9748 89.1205 7.1731 87.6863 7.93109C86.9432 8.32866 86.1164 8.43642 85.2711 8.43642C82.6962 8.43642 80.1231 8.46057 77.55 8.455C76.6764 8.43988 75.8047 8.54236 74.9583 8.75968C72.8794 9.31702 71.1833 10.4076 70.2469 12.427C68.3519 16.5142 70.1336 21.3613 74.5905 22.9089C75.4498 23.2151 76.3554 23.371 77.2676 23.3696C80.0785 23.3566 82.8894 23.3696 85.7003 23.3696C86.456 23.3472 87.2035 23.5308 87.8628 23.9009C89.3379 24.7574 89.8748 26.0746 89.7206 27.7132C89.5738 29.1623 88.4517 30.4015 86.9525 30.7823C86.4935 30.906 86.0213 30.974 85.5461 30.9848C82.6943 31.0034 79.8426 31.061 77.0001 30.9737C74.3692 30.9222 71.7879 30.2493 69.4666 29.01C66.6044 27.492 64.3648 25.019 63.137 22.0208C62.1952 19.8268 61.7693 17.4459 61.8923 15.0614C62.0521 12.0369 62.8416 9.20556 64.7162 6.7588C66.1183 4.92376 67.9596 3.47095 70.0704 2.53411C71.8837 1.71481 73.7545 1.08687 75.7442 0.875077C76.1762 0.829296 76.6103 0.805732 77.0447 0.80448C78.4306 0.795191 79.8184 0.800764 81.2043 0.800764Z" fill="#F66E19"/>
</svg>
