<svg width="249" height="265" viewBox="0 0 249 265" fill="none" xmlns="http://www.w3.org/2000/svg">
<path d="M0 17.0899C1.19456 12.9607 2.61938 8.93884 5.65614 5.88409C7.51943 3.96178 9.72148 2.45243 12.135 1.4433C14.5485 0.434169 17.1256 -0.0547325 19.7174 0.00486056C39.1373 0.00486056 58.5476 0.00486056 77.9483 0.00486056H136.956C149.247 0.00486056 157.278 8.58577 157.293 21.7104C157.293 29.3857 157.293 37.0609 157.293 44.7361C157.364 45.9771 157.014 47.2039 156.307 48.192C155.599 49.1802 154.582 49.8635 153.441 50.117C152.299 50.3705 151.111 50.1772 150.092 49.5724C149.074 48.9677 148.294 47.9919 147.895 46.8238C147.653 45.7807 147.494 44.7178 147.42 43.6463H9.97381V216.201H113.598L104.214 198.793C101.336 200.19 98.5868 201.756 95.7083 202.785C79.7761 208.572 61.901 196.644 59.8285 178.807C58.2885 165.529 63.1099 155.413 73.7026 148.505C80.4526 144.1 87.4184 140.063 94.2115 135.749C95.7957 134.755 97.2036 133.472 98.3709 131.957C116.064 107.96 133.718 83.9105 151.334 59.8103C154.774 55.113 158.372 55.3433 161.164 60.4857C166.82 70.9087 172.448 81.3623 178.147 91.8928C189.186 89.3446 198.023 92.7831 203.823 103.237C207.838 110.451 208.371 121.826 199.678 131.65L215.006 159.972C215.812 161.507 216.675 162.919 217.409 164.47C217.823 165.218 218.055 166.066 218.082 166.935C218.109 167.804 217.931 168.666 217.564 169.442C217.197 170.219 216.653 170.884 215.983 171.378C215.312 171.872 214.535 172.178 213.725 172.268C204.542 173.726 195.36 175.062 186.163 176.458L157.379 180.849V183.919C157.379 203.598 157.178 223.262 157.451 242.926C157.595 253.426 151.435 262.636 141.965 264.616C141.744 264.706 141.54 264.836 141.361 265H16.1481C13.1784 263.762 10.293 262.305 7.51274 260.64C3.19507 257.709 1.43921 252.965 0.0575593 247.915L0 17.0899ZM9.70036 226.808C9.70036 232.657 9.70036 238.244 9.70036 243.832C9.70036 250.494 13.6294 254.684 19.8901 254.7C59.0369 254.7 98.1838 254.7 137.331 254.7C143.591 254.7 147.405 250.509 147.492 243.816C147.492 238.72 147.492 233.624 147.492 228.543C147.453 227.96 147.381 227.381 147.276 226.808H9.70036ZM141.073 90.895C140.612 91.4169 140.382 91.6472 140.18 91.9235C129.012 107.105 117.872 122.333 106.646 137.468C105.653 138.819 106.258 139.617 106.805 140.646C112.662 151.391 118.549 162.229 124.32 173.097C124.627 173.817 125.174 174.391 125.855 174.705C126.535 175.02 127.302 175.054 128.005 174.801C139.964 172.897 151.953 171.132 163.985 169.321L182.076 166.542L141.073 90.895ZM147.52 33.0851V22.8464C147.52 14.0966 144.052 10.3818 135.891 10.3818H21.1278C20.4082 10.3818 19.6886 10.3818 18.9402 10.3818C14.5218 10.7655 10.823 13.4519 10.3048 17.6579C9.6284 22.6929 9.75793 27.866 9.54205 33.0084L147.52 33.0851ZM98.0831 145.451C91.3907 149.564 84.9573 153.51 78.5384 157.485C77.7779 157.978 77.0472 158.522 76.3508 159.112C72.855 161.965 70.4494 166.074 69.5811 170.677C68.7128 175.279 69.4409 180.061 71.6301 184.134C76.1781 192.423 86.0224 196.245 94.082 192.085C101.609 188.171 108.762 183.458 116.232 179.022L98.0831 145.451ZM155.422 71.1389C153.018 74.4086 150.903 77.448 148.614 80.3492C148.193 80.7847 147.944 81.375 147.918 81.9997C147.891 82.6244 148.089 83.2364 148.47 83.711C151.478 89.1143 154.385 94.5791 157.321 100.029C168.663 120.987 179.994 141.966 191.316 162.965C192.093 164.408 192.856 165.13 194.525 164.807C197.922 164.163 201.347 163.718 205.147 163.134C188.538 132.341 172.117 101.963 155.422 71.1389ZM147.362 216.247V182.476L130.782 185.009C134.697 192.208 138.453 199.008 142.08 205.901C143.122 207.506 143.752 209.374 143.908 211.319C143.836 213.023 142.469 214.65 141.605 216.293L147.362 216.247ZM132.48 209.017C128.652 201.956 124.91 195.033 121.082 187.987L112.446 193.313L123.86 214.374L132.48 209.017ZM183.4 101.886C187.013 108.548 190.596 115.133 194.18 121.842C195.595 119.925 196.437 117.599 196.596 115.165C196.756 112.731 196.225 110.302 195.072 108.195C193.945 106.016 192.229 104.248 190.147 103.123C188.066 101.998 185.715 101.567 183.4 101.886Z" fill="#27253B"/>
<path d="M58.6627 68.9899H27.3739C26.413 69.01 25.4518 68.969 24.4955 68.8671C23.4356 68.7279 22.45 68.2141 21.696 67.4076C20.9419 66.6011 20.4629 65.5485 20.3353 64.4177C20.2077 63.2869 20.439 62.1431 20.9922 61.1688C21.5454 60.1946 22.3886 59.4461 23.3873 59.0428C24.4687 58.6918 25.5965 58.5311 26.7263 58.5669H90.4839C91.372 58.5354 92.2605 58.6126 93.132 58.7972C94.2412 59.0765 95.2255 59.7565 95.9181 60.7218C96.6107 61.6871 96.9687 62.8782 96.9316 64.0931C96.8405 65.3455 96.329 66.5208 95.491 67.4034C94.6529 68.286 93.5445 68.8166 92.3693 68.8978C91.4913 68.9899 90.599 68.9899 89.7067 68.9899H58.6627Z" fill="#27253B"/>
<path d="M48.4154 93.8268C40.8882 93.8268 33.3611 93.8268 25.8339 93.8268C22.6389 93.8268 20.7535 92.2917 20.3649 89.544C19.8468 85.952 22.0344 83.4038 25.8339 83.4038C31.9075 83.4038 37.9666 83.4038 44.0401 83.4038H70.9824C74.1487 83.4038 76.2068 84.9389 76.7393 87.487C77.3869 91.1097 75.3001 93.7654 71.5293 93.8114C63.7719 93.8728 56.0864 93.8114 48.4154 93.8268Z" fill="#27253B"/>
<path d="M62.0737 118.664C56.0865 118.664 50.0994 118.664 44.1266 118.664C40.9171 118.664 38.859 116.484 38.859 113.522C38.8576 112.805 38.9942 112.095 39.2604 111.437C39.5266 110.779 39.9167 110.186 40.4065 109.695C40.8963 109.205 41.4754 108.826 42.1079 108.584C42.7404 108.342 43.4128 108.241 44.0834 108.287C56.1345 108.226 68.1808 108.226 80.2223 108.287C80.8945 108.253 81.5662 108.367 82.1958 108.62C82.8255 108.874 83.3999 109.262 83.8838 109.761C84.3677 110.26 84.7509 110.859 85.0097 111.521C85.2686 112.184 85.3977 112.896 85.3891 113.614C85.3729 114.308 85.2257 114.992 84.9565 115.624C84.6872 116.256 84.3014 116.824 83.8219 117.294C83.3424 117.764 82.7791 118.126 82.1657 118.359C81.5522 118.591 80.901 118.69 80.2511 118.649C74.1919 118.741 68.1328 118.649 62.0737 118.649V118.664Z" fill="#27253B"/>
<path d="M249 78.7526C247.949 80.1495 247.143 81.9915 245.791 82.8512C238.062 87.8247 230.218 92.6141 222.346 97.3574C221.793 97.7226 221.177 97.9643 220.535 98.0677C219.892 98.1711 219.237 98.1341 218.608 97.959C217.98 97.7838 217.391 97.4741 216.878 97.0488C216.365 96.6234 215.939 96.0912 215.624 95.4846C215.295 94.8602 215.089 94.1707 215.019 93.4584C214.948 92.7461 215.015 92.0259 215.214 91.3419C215.413 90.6579 215.742 90.0245 216.178 89.4805C216.615 88.9364 217.152 88.4932 217.754 88.1778C221.684 85.6296 225.713 83.2503 229.7 80.8096C233.399 78.5223 237.054 76.2044 240.825 73.9939C244.596 71.7835 248.496 74.1168 249 78.7526Z" fill="#27253B"/>
<path d="M227.484 116.653C231.729 117.973 236.939 119.401 242.034 121.258C243.102 121.748 243.944 122.669 244.376 123.82C244.807 124.971 244.793 126.258 244.337 127.398C243.981 128.559 243.251 129.546 242.275 130.185C241.299 130.823 240.143 131.071 239.012 130.883C234.248 129.639 229.498 128.304 224.807 126.769C223.666 126.414 222.698 125.602 222.105 124.504C221.512 123.405 221.341 122.105 221.626 120.874C222.158 118.295 224.173 116.576 227.484 116.653Z" fill="#27253B"/>
<path d="M207.406 59.4265C206.327 63.5557 205.089 68.8056 203.521 73.9327C203.098 75.0457 202.296 75.9465 201.276 76.4536C200.256 76.9607 199.093 77.0363 198.023 76.665C196.862 76.3923 195.848 75.6443 195.199 74.5819C194.55 73.5196 194.319 72.2281 194.554 70.9854C195.619 65.9658 196.843 60.9769 198.267 56.0647C198.642 54.8589 199.436 53.8523 200.485 53.2525C201.535 52.6527 202.761 52.5054 203.909 52.8411C206.01 53.4551 207.637 55.8498 207.406 59.4265Z" fill="#27253B"/>
<path d="M25.0712 118.618C24.4279 118.628 23.7892 118.5 23.1934 118.241C22.5977 117.982 22.0571 117.597 21.6042 117.11C21.1512 116.622 20.7953 116.042 20.5576 115.405C20.3199 114.767 20.2054 114.084 20.221 113.398C20.3065 112.052 20.8734 110.792 21.8047 109.879C22.7359 108.965 23.9605 108.468 25.2255 108.49C26.4906 108.511 27.6995 109.05 28.6028 109.995C29.5061 110.94 30.0348 112.219 30.0797 113.567C30.0766 114.255 29.9429 114.934 29.6867 115.564C29.4304 116.195 29.0568 116.763 28.5886 117.236C28.1204 117.708 27.5673 118.074 26.9627 118.311C26.3581 118.549 25.7146 118.653 25.0712 118.618Z" fill="#27253B"/>
<path d="M92.1247 93.7501C91.4811 93.7732 90.8399 93.6561 90.2402 93.4058C89.6405 93.1556 89.095 92.7776 88.637 92.2948C88.1789 91.812 87.818 91.2347 87.5764 90.5981C87.3347 89.9615 87.2173 89.279 87.2314 88.5923C87.2489 87.2472 87.7499 85.9605 88.631 84.9979C89.5121 84.0353 90.706 83.4702 91.9664 83.4192C93.266 83.4571 94.5035 84.0205 95.4282 84.9953C96.3528 85.9702 96.8955 87.2834 96.9461 88.6691C96.8989 90.0111 96.3741 91.2836 95.4784 92.2275C94.5827 93.1714 93.3835 93.7159 92.1247 93.7501Z" fill="#27253B"/>
<path d="M78.6966 234.975C79.9553 234.983 81.1604 235.518 82.0518 236.466C82.9431 237.414 83.4491 238.698 83.4604 240.04C83.4652 240.717 83.3448 241.389 83.1061 242.017C82.8675 242.645 82.5152 243.216 82.0695 243.698C81.6238 244.181 81.0934 244.565 80.5085 244.829C79.9236 245.093 79.2957 245.231 78.6606 245.236C78.0256 245.241 77.3958 245.113 76.8073 244.858C76.2188 244.604 75.6831 244.228 75.2307 243.753C74.7783 243.277 74.4181 242.712 74.1707 242.088C73.9233 241.464 73.7936 240.794 73.7889 240.117C73.7787 239.431 73.8995 238.75 74.1436 238.115C74.3878 237.48 74.7504 236.905 75.2093 236.424C75.6682 235.943 76.214 235.566 76.8135 235.317C77.4129 235.068 78.0536 234.952 78.6966 234.975Z" fill="#27253B"/>
<path d="M78.7686 26.9449C73.1125 26.9449 67.4563 26.9449 61.8002 26.9449C58.4324 26.9449 56.3311 24.934 56.3167 21.8332C56.3023 18.7324 58.418 16.614 61.7282 16.614C72.9542 16.614 84.1849 16.614 95.4204 16.614C98.745 16.614 100.904 18.6863 100.933 21.7564C100.961 24.8265 98.8026 26.9295 95.4924 26.9449C89.9226 26.9756 84.324 26.9449 78.7686 26.9449Z" fill="#27253B"/>
</svg>
