<svg width="28" height="24" viewBox="0 0 28 24" fill="none" xmlns="http://www.w3.org/2000/svg">
<path d="M27.124 4.48991C27.3967 4.17759 27.0624 3.72467 26.6648 3.84213C26.2335 3.96952 25.9259 3.30538 26.2122 2.95861C26.3512 2.79027 26.4805 2.61384 26.5991 2.43002C26.8726 2.0061 26.3926 1.58142 25.9284 1.77902C25.3844 2.01058 24.819 2.20127 24.2355 2.34993C23.8283 2.4537 23.4078 2.30656 23.0839 2.03875C22.0796 1.20849 20.7832 0.711746 19.3877 0.711746C16.2122 0.711746 13.6557 3.24867 13.6557 6.35873C13.6557 7.00973 13.1425 7.61539 12.4966 7.53352C9.30751 7.12925 6.41112 5.81519 4.07517 3.86144C2.95911 2.92799 1.18091 3.13962 1.18091 4.59458C1.18091 5.89842 1.63581 7.10352 2.39109 8.05931C2.71885 8.47408 2.44242 9.13054 1.94489 8.95189C1.68328 8.85796 1.43105 8.74646 1.19181 8.62022C1.16708 8.60716 1.13719 8.62501 1.13719 8.65298C1.13719 10.8659 2.43075 12.7764 4.29933 13.7081C4.63688 13.8764 4.60595 14.386 4.22877 14.386C3.7466 14.386 3.34824 14.8666 3.58532 15.2865C3.85059 15.7563 4.18112 16.1859 4.56487 16.563C5.60287 17.583 6.01666 19.7802 4.61736 20.18C3.59299 20.4727 2.50967 20.6302 1.39074 20.6302C1.06194 20.6302 0.91793 21.0879 1.20946 21.2399C3.48045 22.4243 6.06397 23.0863 8.81719 23.0863C19.3719 23.0863 25.1424 14.4807 25.1424 7.02136C25.1424 6.96812 25.142 6.91528 25.1413 6.86275C25.1362 6.50725 25.3008 6.17077 25.5812 5.95214C26.1436 5.51359 26.6576 5.02396 27.124 4.48991Z" fill="#353535"/>
</svg>
