<svg width="124" height="61" viewBox="0 0 124 61" fill="none" xmlns="http://www.w3.org/2000/svg">
<path d="M0 47.1935C0.493637 44.1143 1.47129 41.1356 2.89557 38.3714C4.87776 34.5945 7.81013 31.4186 11.3941 29.1671C12.3351 28.5716 12.3786 28.2481 11.7053 27.3733C10.2603 25.5133 9.2163 23.3657 8.64097 21.0696C8.06564 18.7736 7.97183 16.3804 8.36565 14.0452C8.75946 11.7099 9.63209 9.48484 10.927 7.5141C12.2219 5.54336 13.9101 3.87096 15.8822 2.60535C25.872 -3.90827 39.5391 2.45096 41.2185 14.3681C41.59 16.6946 41.4677 19.075 40.8597 21.3496C40.2517 23.6242 39.172 25.7407 37.6931 27.5571C37.1574 28.2408 37.114 28.579 37.9031 29.0274C40.1014 30.3413 42.0604 32.0299 43.6942 34.0192C44.1285 34.5632 44.4543 34.5927 44.9538 34.1074C46.1096 32.9644 47.395 31.9649 48.7832 31.13C49.5867 30.6595 49.5071 30.2698 48.9859 29.6082C42.1451 20.72 45.0407 8.20735 55.1028 3.61253C57.5001 2.52334 60.1171 2.02555 62.74 2.15981C65.3629 2.29406 67.9174 3.05655 70.1947 4.38501C72.472 5.71347 74.4076 7.5702 75.8433 9.80353C77.279 12.0369 78.1741 14.5834 78.4556 17.2353C78.7171 19.4323 78.5383 21.6604 77.93 23.7854C77.3217 25.9105 76.2963 27.8886 74.9157 29.6008C74.4018 30.2551 74.3366 30.6521 75.1112 31.13C76.4967 31.9717 77.7817 32.9733 78.9406 34.1148C79.4473 34.6221 79.7803 34.5338 80.2074 34.0045C81.8349 32.021 83.7806 30.3308 85.9624 29.0054C86.6863 28.5642 86.6862 28.2702 86.1795 27.5938C78.3108 17.4044 83.3925 3.09792 95.8363 0.392485C105.746 -1.81303 115.599 6.27386 115.685 16.5663C115.804 20.6113 114.46 24.5603 111.907 27.6673C111.393 28.2996 111.436 28.601 112.153 29.0568C118.921 33.3723 122.895 39.6139 123.735 47.6419C124.206 52.053 123.938 56.5449 123.779 61H119.435C119.435 56.5007 119.819 51.9647 119.247 47.517C118.342 40.599 114.571 35.4749 108.519 32.0784C108.219 31.8871 107.873 31.782 107.519 31.7742C107.164 31.7664 106.815 31.8563 106.506 32.0343C101.439 34.4897 96.372 34.5632 91.3047 31.9093C91.0846 31.7802 90.8349 31.7123 90.5808 31.7123C90.3267 31.7123 90.077 31.7802 89.8569 31.9093C87.2718 33.2579 84.9818 35.1233 83.1247 37.3937C82.9995 37.5085 82.8981 37.6475 82.8265 37.8027C82.7549 37.9578 82.7146 38.126 82.7078 38.2972C82.7011 38.4684 82.7281 38.6392 82.7872 38.7997C82.8464 38.9601 82.9365 39.107 83.0523 39.2316C83.947 40.5929 84.6762 42.0592 85.224 43.5985C87.3522 49.2226 86.8527 55.0966 86.8093 60.9265H82.4659C82.4659 58.1916 82.466 55.4495 82.3791 52.7146C82.1619 44.4881 78.6655 38.2465 71.5207 34.2177C71.1821 34.0102 70.7941 33.9005 70.3987 33.9005C70.0032 33.9005 69.6152 34.0102 69.2766 34.2177C67.0455 35.3772 64.577 35.9874 62.0708 35.9989C59.5645 36.0104 57.0908 35.4229 54.8494 34.2839C54.4016 34.0283 53.8913 33.9078 53.3784 33.9365C52.8655 33.9651 52.3713 34.1417 51.9538 34.4456C45.1565 38.6581 41.6094 44.738 41.4718 52.869C41.4284 55.5597 41.4212 58.2578 41.3922 60.9559H37.0489C37.0489 58.2578 36.9692 55.5597 37.0054 52.869C36.9464 48.0565 38.2805 43.3323 40.8421 39.283C41.0588 39.0198 41.1689 38.6827 41.1501 38.3401C41.1312 37.9975 40.9849 37.6749 40.7407 37.4378C38.9469 35.1663 36.6928 33.3134 34.1316 32.0049C33.8602 31.8404 33.55 31.7536 33.234 31.7536C32.9179 31.7536 32.6077 31.8404 32.3363 32.0049C27.3197 34.6 22.2742 34.4603 17.2576 32.0049C17.0022 31.8516 16.711 31.7707 16.4143 31.7707C16.1176 31.7707 15.8264 31.8516 15.5709 32.0049C8.96903 35.6807 5.08896 41.2239 4.51709 48.8623C4.21305 52.8911 4.43021 56.9492 4.41573 61C3.20683 61 1.99793 60.9632 0.796265 61C0.188195 61 0.0723717 60.8603 0.0723717 60.2648C0.0144602 55.8685 0 51.5163 0 47.1935ZM61.8784 6.67084C59.4742 6.68828 57.129 7.42861 55.1387 8.7984C53.1484 10.1682 51.6023 12.1061 50.6955 14.3674C49.7886 16.6288 49.5617 19.1123 50.0433 21.5045C50.525 23.8967 51.6936 26.0904 53.4017 27.8087C55.1098 29.5271 57.2809 30.693 59.6409 31.1594C62.0009 31.6258 64.444 31.3718 66.6619 30.4294C68.8799 29.487 70.7733 27.8985 72.1031 25.8643C73.4329 23.8301 74.1396 21.4414 74.1339 18.9997C74.1302 17.3718 73.8097 15.7607 73.1911 14.259C72.5724 12.7572 71.6677 11.3944 70.5289 10.2488C69.3901 9.10317 68.0397 8.19735 66.5552 7.58334C65.0706 6.96932 63.4813 6.65922 61.8784 6.67084ZM36.9258 16.8897C36.9115 14.4478 36.1856 12.065 34.8397 10.0415C33.4938 8.01795 31.5881 6.44446 29.3628 5.51937C27.1376 4.59428 24.6925 4.359 22.3358 4.84321C19.9791 5.32742 17.8163 6.50943 16.1201 8.24021C14.4239 9.97099 13.2703 12.173 12.8047 14.5687C12.3391 16.9644 12.5824 19.4465 13.5038 21.702C14.4252 23.9575 15.9836 25.8854 17.9824 27.2427C19.9812 28.6 22.331 29.3259 24.7354 29.3288C26.3401 29.3337 27.9298 29.0158 29.4129 28.3935C30.8959 27.7713 32.243 26.8569 33.3763 25.7032C34.5096 24.5495 35.4068 23.1793 36.016 21.6716C36.6252 20.164 36.9344 18.5488 36.9258 16.9191V16.8897ZM111.161 17.0147C111.081 9.84679 105.79 4.48004 98.8549 4.5168C92.0431 4.56826 86.8527 10.1114 86.8745 17.2206C86.9755 20.4443 88.3151 23.4999 90.6064 25.7333C92.8978 27.9667 95.9589 29.2006 99.1347 29.1708C102.311 29.141 105.349 27.85 107.599 25.5739C109.849 23.2979 111.133 20.2178 111.176 16.9926L111.161 17.0147Z" fill="#F88600"/>
</svg>
