<svg width="293" height="170" viewBox="0 0 293 170" fill="none" xmlns="http://www.w3.org/2000/svg">
<path d="M82.9381 144.001L87.1747 152.556L96.635 153.937L89.7865 160.593L91.3994 170L82.9381 165.555L74.4768 170L76.0896 160.593L69.2532 153.937L78.7134 152.556L82.9381 144.001Z" fill="#27253B"/>
<path d="M113.702 144.001L117.939 152.556L127.399 153.937L120.551 160.593L122.163 170L113.702 165.555L105.241 170L106.854 160.593L100.005 153.937L109.477 152.556L113.702 144.001Z" fill="#27253B"/>
<path d="M144.466 144.001L148.703 152.556L158.163 153.937L151.314 160.593L152.927 170L144.466 165.555L136.005 170L137.618 160.593L130.769 153.937L140.241 152.556L144.466 144.001Z" fill="#27253B"/>
<path d="M175.23 144.001L179.467 152.556L188.927 153.937L182.078 160.593L183.691 170L175.23 165.555L166.769 170L168.381 160.593L161.533 153.937L171.005 152.556L175.23 144.001Z" fill="#27253B"/>
<path d="M205.994 144.001L210.218 152.556L219.691 153.937L212.842 160.593L214.455 170L205.994 165.555L197.533 170L199.145 160.593L192.309 153.937L201.757 152.556L205.994 144.001Z" fill="#27253B"/>
<path d="M172.889 0H180.327C181.338 0.192226 182.349 0.360423 183.348 0.576678C190.176 1.96895 196.344 5.59673 200.872 10.8848C208.371 19.6311 210.621 29.6749 207.793 40.812C206.18 46.4227 203.372 51.6193 199.56 56.0459C198.665 57.1144 198.194 58.474 198.236 59.8664C198.285 79.7138 198.285 99.5611 198.236 119.408C198.236 119.865 198.236 120.322 198.236 120.766C198.236 121.211 197.972 121.451 197.526 121.102C197.306 120.919 197.097 120.722 196.9 120.514L148.227 71.9286C147.023 70.7272 147.084 70.7272 148.227 69.6219L156.387 61.4763C156.797 61.0679 157.266 60.6954 156.724 60.0226C155.521 58.5809 154.401 57.1272 153.258 55.6615C152.849 55.1449 152.464 55.1569 152.054 55.6615C151.645 56.1661 151.477 56.2382 151.188 56.5385L87.2527 120.334C86.8916 120.706 86.5185 121.427 86.0491 121.247C85.5797 121.066 85.7723 120.225 85.7723 119.685C85.7723 85.9331 85.7723 52.1814 85.7723 18.4297C85.7723 18.0212 85.7723 17.6127 85.7723 17.2283C85.7967 16.6704 86.0009 16.1352 86.3543 15.7023C86.7077 15.2695 87.1916 14.9619 87.7341 14.8254C88.4549 14.6539 89.197 14.5892 89.9367 14.6332C109.074 14.6332 128.215 14.6332 147.36 14.6332C148.022 14.6909 148.686 14.5656 149.28 14.271C149.875 13.9764 150.377 13.5239 150.73 12.9632C154.031 8.43209 158.486 4.86474 163.633 2.63109C166.584 1.3394 169.698 0.454263 172.889 0ZM152.115 32.4982C152.073 34.0234 152.215 35.548 152.536 37.0396C153.51 41.5266 155.494 45.7335 158.337 49.342C161.31 53.2466 164.463 57.0191 167.412 60.9357C172.132 66.8089 174.855 74.0299 175.187 81.552C175.187 82.6693 175.922 82.6452 176.704 82.6693C177.486 82.6933 178.052 82.4049 178.004 81.4678C177.969 80.0242 178.098 78.5813 178.389 77.1668C179.501 71.0496 182.124 65.3057 186.02 60.4551C189.053 56.4905 192.291 52.682 195.239 48.6572C199.488 42.8544 201.787 36.4509 200.872 29.0862C200.07 22.906 196.932 17.2653 192.101 13.3179C187.27 9.37052 181.11 7.41473 174.882 7.85056C168.654 8.28639 162.828 11.0809 158.596 15.6625C154.364 20.2441 152.045 26.2667 152.115 32.4982ZM126.081 40.6438C123.481 40.6438 120.869 40.6438 118.269 40.6438C117.258 40.6438 116.849 41.0163 116.897 42.0254C116.897 43.311 116.957 44.5845 116.897 45.87C116.897 46.9632 117.319 47.3117 118.366 47.2996C121.05 47.2996 123.734 47.2996 126.418 47.2996C127.802 47.2996 127.886 47.4799 127.357 48.7413C126.741 50.1795 125.842 51.4793 124.713 52.5633C123.584 53.6473 122.247 54.4934 120.784 55.0511C119.32 55.6088 117.759 55.8667 116.193 55.8095C114.627 55.7523 113.089 55.3812 111.67 54.7182C110.252 54.0551 108.981 53.1138 107.934 51.9503C106.887 50.7868 106.086 49.4249 105.577 47.9457C105.069 46.4665 104.864 44.9003 104.974 43.3403C105.085 41.7804 105.509 40.2586 106.221 38.8657C106.93 37.4053 107.938 36.1098 109.18 35.0628C110.422 34.0158 111.871 33.2407 113.432 32.7878C114.993 32.3348 116.632 32.214 118.243 32.4331C119.853 32.6523 121.4 33.2066 122.783 34.0601C123.529 34.4926 123.926 34.4085 124.408 33.7357C125.274 32.5343 126.177 31.3329 127.128 30.2035C127.754 29.4587 127.573 29.0021 126.815 28.5456C123.21 26.1162 118.838 25.0903 114.526 25.6622C112.028 25.9489 109.616 26.7442 107.438 27.9989C105.26 29.2536 103.363 30.9411 101.865 32.9569C100.367 34.9727 99.2988 37.274 98.7273 39.7183C98.1558 42.1626 98.0929 44.6979 98.5424 47.1675C100.589 60.383 116.657 66.9548 127.429 58.9894C133.254 54.6883 135.553 48.8134 135.108 41.7131C135.048 40.776 134.458 40.7039 133.748 40.7039L126.081 40.6438Z" fill="#27253B"/>
<path d="M141.884 126.857H93.1503C92.7772 126.857 92.4041 126.857 92.043 126.857C91.6819 126.857 91.4894 126.929 91.381 126.653C91.2727 126.377 91.5375 126.208 91.694 126.028C91.8504 125.848 92.1032 125.62 92.3078 125.416L140.608 77.2028C141.956 75.8692 141.956 75.8692 143.28 77.2028C159.328 93.2217 175.396 109.269 191.484 125.343C191.881 125.728 192.688 126.1 192.435 126.641C192.182 127.182 191.4 126.893 190.846 126.893L141.884 126.857Z" fill="#27253B"/>
<path d="M176.572 40.1992C175.289 40.2137 174.016 39.9722 172.828 39.4889C171.64 39.0056 170.561 38.2902 169.654 37.3848C168.747 36.4793 168.03 35.4021 167.546 34.2163C167.062 33.0306 166.82 31.7602 166.834 30.4798C166.847 27.8933 167.885 25.417 169.72 23.5914C171.556 21.7659 174.041 20.7395 176.632 20.7363C179.203 20.7828 181.655 21.8254 183.47 23.6437C185.284 25.462 186.32 27.9134 186.357 30.4798C186.358 31.7607 186.106 33.0292 185.614 34.2123C185.123 35.3954 184.401 36.4696 183.491 37.3731C182.582 38.2766 181.502 38.9914 180.314 39.4765C179.127 39.9615 177.855 40.2072 176.572 40.1992Z" fill="#27253B"/>
</svg>
