<svg width="262" height="128" viewBox="0 0 262 128" fill="none" xmlns="http://www.w3.org/2000/svg">
<path d="M0 99.0289C1.04301 92.5676 3.1087 86.3173 6.11807 80.5171C10.3062 72.5918 16.5021 65.9276 24.0746 61.2031C26.063 59.9535 26.1547 59.2748 24.7323 57.439C21.6791 53.5361 19.4732 49.0296 18.2575 44.2117C17.0419 39.3938 16.8437 34.3719 17.6758 29.4718C18.5079 24.5717 20.3517 19.9026 23.0876 15.7673C25.8236 11.632 29.3907 8.12268 33.5576 5.46696C54.6649 -8.20096 83.5422 5.143 87.0907 30.1494C87.8757 35.0314 87.6172 40.0262 86.3326 44.7992C85.0479 49.5722 82.7667 54.0132 79.6419 57.8247C78.5101 59.2593 78.4183 59.969 80.0855 60.91C84.7303 63.6669 88.8696 67.2103 92.3216 71.3846C93.2393 72.5262 93.9276 72.5879 94.983 71.5697C97.425 69.1711 100.141 67.0738 103.074 65.322C104.772 64.3347 104.604 63.517 103.502 62.1287C89.0485 43.478 95.1665 17.222 116.427 7.58039C121.492 5.29488 127.022 4.25034 132.563 4.53206C138.105 4.81377 143.503 6.41375 148.315 9.20133C153.126 11.9889 157.216 15.885 160.249 20.5714C163.283 25.2577 165.174 30.6013 165.769 36.1658C166.322 40.776 165.944 45.4513 164.659 49.9104C163.373 54.3696 161.207 58.5204 158.29 62.1132C157.204 63.4862 157.066 64.3192 158.703 65.322C161.63 67.0882 164.345 69.1898 166.794 71.5851C167.864 72.6496 168.568 72.4644 169.47 71.3537C172.909 67.1915 177.02 63.645 181.63 60.8637C183.16 59.9381 183.16 59.321 182.089 57.9018C165.463 36.5206 176.2 6.50055 202.493 0.823576C223.432 -3.80439 244.249 13.1648 244.432 34.762C244.683 43.2499 241.843 51.5365 236.448 58.056C235.362 59.3827 235.454 60.0152 236.968 60.9717C251.269 70.027 259.666 83.1242 261.44 99.97C262.435 109.226 261.869 118.652 261.532 128H252.355C252.355 118.559 253.166 109.041 251.957 99.7077C250.045 85.1913 242.077 74.439 229.29 67.312C228.656 66.9106 227.925 66.69 227.176 66.6737C226.428 66.6574 225.689 66.846 225.038 67.2194C214.331 72.3719 203.625 72.5262 192.918 66.9572C192.453 66.6864 191.925 66.5438 191.388 66.5438C190.852 66.5438 190.324 66.6864 189.859 66.9572C184.397 69.787 179.558 73.7015 175.634 78.4654C175.37 78.7063 175.156 78.9981 175.004 79.3237C174.853 79.6493 174.768 80.002 174.754 80.3612C174.739 80.7205 174.796 81.079 174.921 81.4157C175.046 81.7524 175.237 82.0605 175.481 82.322C177.372 85.1786 178.913 88.2554 180.07 91.4854C184.567 103.287 183.511 115.612 183.42 127.846H174.243C174.243 122.107 174.243 116.353 174.059 110.614C173.6 93.352 166.213 80.2549 151.116 71.8011C150.401 71.3657 149.581 71.1355 148.746 71.1355C147.91 71.1355 147.09 71.3657 146.375 71.8011C141.661 74.2342 136.445 75.5145 131.15 75.5387C125.854 75.5628 120.627 74.33 115.891 71.9399C114.945 71.4037 113.867 71.1508 112.783 71.2109C111.7 71.271 110.656 71.6417 109.773 72.2793C95.4113 81.1187 87.9166 93.8765 87.626 110.938C87.5342 116.584 87.519 122.246 87.4578 127.907H78.2807C78.2807 122.246 78.1124 116.584 78.1889 110.938C78.0643 100.84 80.883 90.9268 86.2953 82.43C86.7532 81.8776 86.9859 81.1703 86.9461 80.4513C86.9063 79.7324 86.5972 79.0556 86.0812 78.5579C82.291 73.7916 77.5284 69.9036 72.1167 67.1577C71.5433 66.8126 70.8879 66.6304 70.2201 66.6304C69.5523 66.6304 68.897 66.8126 68.3235 67.1577C57.7239 72.6033 47.0632 72.3102 36.4637 67.1577C35.924 66.8361 35.3086 66.6664 34.6818 66.6664C34.0549 66.6664 33.4396 66.8361 32.8999 67.1577C18.9507 74.871 10.7525 86.5026 9.54417 102.531C8.90177 110.985 9.36061 119.5 9.33002 128C6.77572 128 4.22143 127.923 1.68243 128C0.397637 128 0.152914 127.707 0.152914 126.457C0.030553 117.232 0 108.1 0 99.0289ZM130.743 13.9978C125.663 14.0344 120.708 15.5879 116.503 18.4622C112.298 21.3366 109.031 25.4029 107.115 30.148C105.199 34.8932 104.719 40.1045 105.737 45.1242C106.754 50.1439 109.224 54.7471 112.833 58.3528C116.442 61.9584 121.029 64.405 126.015 65.3837C131.002 66.3624 136.164 65.8294 140.85 63.8519C145.537 61.8744 149.537 58.541 152.347 54.2725C155.157 50.0041 156.65 44.9917 156.638 39.8682C156.63 36.4523 155.953 33.0717 154.646 29.9204C153.338 26.7692 151.427 23.9095 149.021 21.5056C146.615 19.1017 143.761 17.201 140.625 15.9126C137.488 14.6242 134.13 13.9734 130.743 13.9978ZM78.0206 35.4407C77.9904 30.3168 76.4567 25.3166 73.6129 21.0706C70.7691 16.8246 66.7425 13.5228 62.0408 11.5816C57.3391 9.64045 52.1728 9.14676 47.1933 10.1628C42.2138 11.1789 37.6441 13.6591 34.0602 17.2909C30.4764 20.9227 28.0389 25.5434 27.0551 30.5705C26.0713 35.5975 26.5853 40.8058 28.5322 45.5386C30.4791 50.2715 33.7718 54.3169 37.9951 57.165C42.2184 60.0131 47.1832 61.5363 52.2636 61.5425C55.654 61.5527 59.013 60.8857 62.1465 59.5799C65.2801 58.2741 68.1263 56.3554 70.5209 53.9346C72.9155 51.5137 74.8111 48.6385 76.0983 45.4749C77.3855 42.3113 78.0388 38.922 78.0206 35.5024V35.4407ZM234.873 35.703C234.704 20.6621 223.524 9.40074 208.871 9.47787C194.478 9.58586 183.511 21.2175 183.557 36.1349C183.771 42.8996 186.601 49.3112 191.443 53.9978C196.284 58.6843 202.752 61.2733 209.462 61.2108C216.172 61.1483 222.592 58.4392 227.346 53.6634C232.101 48.8875 234.814 42.4242 234.903 35.6567L234.873 35.703Z" fill="#27253B"/>
</svg>
