<svg width="24" height="23" viewBox="0 0 24 23" fill="none" xmlns="http://www.w3.org/2000/svg">
<path fill-rule="evenodd" clip-rule="evenodd" d="M7.83594 0H16.4609C20.4299 0 23.6484 3.21856 23.6484 7.1875V15.8125C23.6484 19.7814 20.4299 23 16.4609 23H7.83594C3.867 23 0.648438 19.7814 0.648438 15.8125V7.1875C0.648438 3.21856 3.867 0 7.83594 0ZM16.4619 20.8434C19.2363 20.8434 21.4932 18.5865 21.4932 15.8121V7.18712C21.4932 4.41275 19.2363 2.15588 16.4619 2.15588H7.83692C5.06254 2.15588 2.80566 4.41275 2.80566 7.18712V15.8121C2.80566 18.5865 5.06254 20.8434 7.83692 20.8434H16.4619Z" fill="#F88600"/>
<path fill-rule="evenodd" clip-rule="evenodd" d="M6.39697 11.5007C6.39697 8.32529 8.97152 5.75073 12.1469 5.75073C15.3224 5.75073 17.8969 8.32529 17.8969 11.5007C17.8969 14.6762 15.3224 17.2507 12.1469 17.2507C8.97152 17.2507 6.39697 14.6762 6.39697 11.5007ZM8.5542 11.5014C8.5542 13.4823 10.1671 15.0952 12.1479 15.0952C14.1288 15.0952 15.7417 13.4823 15.7417 11.5014C15.7417 9.51909 14.1288 7.90765 12.1479 7.90765C10.1671 7.90765 8.5542 9.51909 8.5542 11.5014Z" fill="#F88600"/>
<ellipse cx="18.3302" cy="5.31929" rx="0.766224" ry="0.766188" fill="#F88600"/>
</svg>
